<?xml version="1.0" standalone="no"?>
<!DOCTYPE svg PUBLIC "-//W3C//DTD SVG 1.1//EN"
"http://www.w3.org/Graphics/SVG/1.1/DTD/svg11.dtd">
<svg width="12cm" height="12cm" viewBox="134 120 645 720"
xmlns="http://www.w3.org/2000/svg" version="1.1">
<title>Example38.svg</title>
<text x="200" y="140" fill="black">Example38.svg</text>
<polyline points="288.7,267.3 257.5,293.8" 
style="fill:white;stroke:black;stroke-width:1"/>
<polyline points="194.4,247.6 257.5,293.8" 
style="fill:white;stroke:black;stroke-width:1"/>
<polyline points="248.1,343.0 268.3,331.6" 
style="fill:white;stroke:black;stroke-width:1"/>
<polyline points="248.1,343.0 257.7,377.5" 
style="fill:white;stroke:black;stroke-width:1"/>
<polyline points="164.8,366.0 248.3,390.4" 
style="fill:white;stroke:black;stroke-width:1"/>
<polyline points="235.0,443.9 260.7,420.7" 
style="fill:white;stroke:black;stroke-width:1"/>
<polyline points="235.0,443.9 261.9,467.1" 
style="fill:white;stroke:black;stroke-width:1"/>
<polyline points="172.5,516.2 255.8,478.1" 
style="fill:white;stroke:black;stroke-width:1"/>
<polyline points="255.8,516.2 255.8,478.1" 
style="fill:white;stroke:black;stroke-width:1"/>
<polyline points="255.8,516.2 281.1,512.9" 
style="fill:white;stroke:black;stroke-width:1"/>
<polyline points="267.9,607.2 300.4,537.1" 
style="fill:white;stroke:black;stroke-width:1"/>
<polyline points="365.5,544.7 354.3,527.4" 
style="fill:white;stroke:black;stroke-width:1"/>
<polyline points="365.5,544.7 390.8,540.5" 
style="fill:white;stroke:black;stroke-width:1"/>
<polyline points="378.6,622.6 409.8,560.3" 
style="fill:white;stroke:black;stroke-width:1"/>
<polyline points="448.8,586.4 433.7,557.1" 
style="fill:white;stroke:black;stroke-width:1"/>
<polyline points="448.8,586.4 471.8,564.2" 
style="fill:white;stroke:black;stroke-width:1"/>
<polyline points="510.2,650.0 485.4,577.3" 
style="fill:white;stroke:black;stroke-width:1"/>
<polyline points="517.9,580.9 485.4,577.3" 
style="fill:white;stroke:black;stroke-width:1"/>
<polyline points="517.9,580.9 514.1,550.1" 
style="fill:white;stroke:black;stroke-width:1"/>
<polyline points="626.4,567.8 535.5,530.8" 
style="fill:white;stroke:black;stroke-width:1"/>
<polyline points="554.1,477.9 526.3,500.2" 
style="fill:white;stroke:black;stroke-width:1"/>
<polyline points="554.1,477.9 536.1,442.4" 
style="fill:white;stroke:black;stroke-width:1"/>
<polyline points="634.1,437.3 549.4,423.0" 
style="fill:white;stroke:black;stroke-width:1"/>
<polyline points="573.8,374.8 543.0,404.5" 
style="fill:white;stroke:black;stroke-width:1"/>
<polyline points="573.8,374.8 548.2,341.5" 
style="fill:white;stroke:black;stroke-width:1"/>
<polyline points="635.2,327.6 552.9,333.1" 
style="fill:white;stroke:black;stroke-width:1"/>
<polyline points="542.0,273.9 531.7,291.8" 
style="fill:white;stroke:black;stroke-width:1"/>
<polyline points="542.0,273.9 528.4,267.6" 
style="fill:white;stroke:black;stroke-width:1"/>
<polyline points="582.6,186.2 524.7,235.2" 
style="fill:white;stroke:black;stroke-width:1"/>
<polyline points="470.7,216.9 476.3,237.1" 
style="fill:white;stroke:black;stroke-width:1"/>
<polyline points="470.7,216.9 443.9,224.3" 
style="fill:white;stroke:black;stroke-width:1"/>
<polyline points="454.3,157.7 432.3,213.7" 
style="fill:white;stroke:black;stroke-width:1"/>
<polyline points="370.9,209.2 379.9,223.7" 
style="fill:white;stroke:black;stroke-width:1"/>
<polyline points="370.9,209.2 354.3,217.5" 
style="fill:white;stroke:black;stroke-width:1"/>
<polyline points="341.3,150.0 330.0,199.3" 
style="fill:white;stroke:black;stroke-width:1"/>
<polyline points="252.5,218.0 330.0,199.3" 
style="fill:white;stroke:black;stroke-width:1"/>
<polyline points="513.5,265.1 518.9,235.2" 
style="fill:white;stroke:black;stroke-width:1"/>
<polyline points="513.5,265.1 528.6,266.6" 
style="fill:white;stroke:black;stroke-width:1"/>
<polyline points="487.2,534.9 527.6,538.8" 
style="fill:white;stroke:black;stroke-width:1"/>
<polyline points="487.2,534.9 479.9,568.7" 
style="fill:white;stroke:black;stroke-width:1"/>
<polyline points="298.6,494.3 291.5,527.4" 
style="fill:white;stroke:black;stroke-width:1"/>
<polyline points="298.6,494.3 272.2,495.4" 
style="fill:white;stroke:black;stroke-width:1"/>
<polyline points="330.0,199.3 354.3,217.5" 
style="fill:white;stroke:black;stroke-width:1"/>
<polyline points="485.4,577.3 483.5,570.6"
style="fill:white;stroke:black;stroke-width:1"/>
<polyline points="255.8,478.1 258.4,476.9"
style="fill:white;stroke:black;stroke-width:1"/>
<polyline points="257.5,293.8 268.3,331.6" 
style="fill:white;stroke:black;stroke-width:1"/>
<polyline points="354.3,217.5 360.2,221.1  366.4,223.4  373.0,224.3  379.9,223.7"
style="fill:white;stroke:black;stroke-width:1"/>
<polyline points="268.3,331.6 269.8,338.9  270.0,345.8  269.2,352.5  267.5,359.0  265.0,365.4  261.6,371.5  257.7,377.5"
style="fill:white;stroke:black;stroke-width:1"/>
<polyline points="379.9,223.7 432.3,213.7" 
style="fill:white;stroke:black;stroke-width:1"/>
<polyline points="257.7,377.5 248.3,390.4" 
style="fill:white;stroke:black;stroke-width:1"/>
<polyline points="432.3,213.7 443.9,224.3" 
style="fill:white;stroke:black;stroke-width:1"/>
<polyline points="248.3,390.4 260.7,420.7" 
style="fill:white;stroke:black;stroke-width:1"/>
<polyline points="443.9,224.3 449.6,228.9  455.6,232.6  462.1,235.2  468.9,236.8  476.3,237.1"
style="fill:white;stroke:black;stroke-width:1"/>
<polyline points="260.7,420.7 263.8,429.9  265.4,439.1  265.6,448.4  264.4,457.7  261.9,467.1"
style="fill:white;stroke:black;stroke-width:1"/>
<polyline points="476.3,237.1 518.9,235.2" 
style="fill:white;stroke:black;stroke-width:1"/>
<polyline points="261.9,467.1 258.4,476.9" 
style="fill:white;stroke:black;stroke-width:1"/>
<polyline points="518.9,235.2 524.7,235.2"
style="fill:white;stroke:black;stroke-width:1"/>
<polyline points="258.4,476.9 266.0,485.7  272.2,495.4"
style="fill:white;stroke:black;stroke-width:1"/>
<polyline points="524.7,235.2 527.4,242.8  529.2,250.6  529.8,258.5  528.6,266.6"
style="fill:white;stroke:black;stroke-width:1"/>
<polyline points="272.2,495.4 281.1,512.9" 
style="fill:white;stroke:black;stroke-width:1"/>
<polyline points="528.6,266.6 528.4,267.6" 
style="fill:white;stroke:black;stroke-width:1"/>
<polyline points="281.1,512.9 285.8,520.5  291.5,527.4"
style="fill:white;stroke:black;stroke-width:1"/>
<polyline points="528.4,267.6 527.3,276.0  528.6,284.0  531.7,291.8"
style="fill:white;stroke:black;stroke-width:1"/>
<polyline points="291.5,527.4 300.4,537.1" 
style="fill:white;stroke:black;stroke-width:1"/>
<polyline points="531.7,291.8 552.9,333.1" 
style="fill:white;stroke:black;stroke-width:1"/>
<polyline points="300.4,537.1 354.3,527.4" 
style="fill:white;stroke:black;stroke-width:1"/>
<polyline points="552.9,333.1 548.2,341.5" 
style="fill:white;stroke:black;stroke-width:1"/>
<polyline points="354.3,527.4 361.4,526.7  368.1,527.3  374.3,529.0  380.2,531.9  385.7,535.7  390.8,540.5"
style="fill:white;stroke:black;stroke-width:1"/>
<polyline points="548.2,341.5 544.5,349.1  541.6,356.8  539.6,364.6  538.5,372.4  538.3,380.3  539.0,388.3  540.5,396.4  543.0,404.5"
style="fill:white;stroke:black;stroke-width:1"/>
<polyline points="390.8,540.5 409.8,560.3" 
style="fill:white;stroke:black;stroke-width:1"/>
<polyline points="543.0,404.5 549.4,423.0" 
style="fill:white;stroke:black;stroke-width:1"/>
<polyline points="409.8,560.3 433.7,557.1" 
style="fill:white;stroke:black;stroke-width:1"/>
<polyline points="549.4,423.0 536.1,442.4" 
style="fill:white;stroke:black;stroke-width:1"/>
<polyline points="433.7,557.1 443.6,556.5  453.3,557.5  462.7,560.1  471.8,564.2"
style="fill:white;stroke:black;stroke-width:1"/>
<polyline points="536.1,442.4 531.9,449.1  528.6,456.0  526.0,463.0  524.3,470.1  523.5,477.4  523.5,484.8  524.5,492.4  526.3,500.2"
style="fill:white;stroke:black;stroke-width:1"/>
<polyline points="471.8,564.2 479.9,568.7" 
style="fill:white;stroke:black;stroke-width:1"/>
<polyline points="526.3,500.2 535.5,530.8" 
style="fill:white;stroke:black;stroke-width:1"/>
<polyline points="479.9,568.7 483.5,570.6"
style="fill:white;stroke:black;stroke-width:1"/>
<polyline points="535.5,530.8 527.6,538.8" 
style="fill:white;stroke:black;stroke-width:1"/>
<polyline points="483.5,570.6 514.1,550.1" 
style="fill:white;stroke:black;stroke-width:1"/>
<polyline points="527.6,538.8 514.1,550.1"
style="fill:white;stroke:black;stroke-width:1"/>
<polyline points="194.4,247.6 248.1,343.0" 
style="fill:white;stroke:black;stroke-width:1"/>
<polyline points="248.1,343.0 164.8,366.0" 
style="fill:white;stroke:black;stroke-width:1"/>
<polyline points="164.8,366.0 235.0,443.9" 
style="fill:white;stroke:black;stroke-width:1"/>
<polyline points="235.0,443.9 172.5,516.2" 
style="fill:white;stroke:black;stroke-width:1"/>
<polyline points="172.5,516.2 255.8,516.2" 
style="fill:white;stroke:black;stroke-width:1"/>
<polyline points="255.8,516.2 267.9,607.2" 
style="fill:white;stroke:black;stroke-width:1"/>
<polyline points="267.9,607.2 365.5,544.7" 
style="fill:white;stroke:black;stroke-width:1"/>
<polyline points="365.5,544.7 378.6,622.6" 
style="fill:white;stroke:black;stroke-width:1"/>
<polyline points="378.6,622.6 448.8,586.4" 
style="fill:white;stroke:black;stroke-width:1"/>
<polyline points="448.8,586.4 510.2,650.0" 
style="fill:white;stroke:black;stroke-width:1"/>
<polyline points="510.2,650.0 517.9,580.9" 
style="fill:white;stroke:black;stroke-width:1"/>
<polyline points="517.9,580.9 626.4,567.8" 
style="fill:white;stroke:black;stroke-width:1"/>
<polyline points="626.4,567.8 554.1,477.9" 
style="fill:white;stroke:black;stroke-width:1"/>
<polyline points="554.1,477.9 634.1,437.3" 
style="fill:white;stroke:black;stroke-width:1"/>
<polyline points="634.1,437.3 573.8,374.8" 
style="fill:white;stroke:black;stroke-width:1"/>
<polyline points="573.8,374.8 635.2,327.6" 
style="fill:white;stroke:black;stroke-width:1"/>
<polyline points="635.2,327.6 542.0,273.9" 
style="fill:white;stroke:black;stroke-width:1"/>
<polyline points="542.0,273.9 582.6,186.2" 
style="fill:white;stroke:black;stroke-width:1"/>
<polyline points="582.6,186.2 470.7,216.9" 
style="fill:white;stroke:black;stroke-width:1"/>
<polyline points="470.7,216.9 454.3,157.7" 
style="fill:white;stroke:black;stroke-width:1"/>
<polyline points="454.3,157.7 370.9,209.2" 
style="fill:white;stroke:black;stroke-width:1"/>
<polyline points="370.9,209.2 341.3,150.0" 
style="fill:white;stroke:black;stroke-width:1"/>
<polyline points="341.3,150.0 252.5,218.0" 
style="fill:white;stroke:black;stroke-width:1"/>
<polyline points="252.5,218.0 513.5,265.1" 
style="fill:white;stroke:black;stroke-width:1"/>
<polyline points="513.5,265.1 487.2,534.9" 
style="fill:white;stroke:black;stroke-width:1"/>
<polyline points="487.2,534.9 298.6,494.3" 
style="fill:white;stroke:black;stroke-width:1"/>
<polyline points="298.6,494.3 288.7,267.3" 
style="fill:white;stroke:black;stroke-width:1"/>
<polyline points="288.7,267.3 194.4,247.6" 
style="fill:white;stroke:black;stroke-width:1"/>
<circle cx="330.0" cy="199.3" r="4" stroke="black" stroke-width="1" fill="pink"/>
<circle cx="485.4" cy="577.3" r="2" stroke="black" stroke-width="1" fill="black"/>
<circle cx="255.8" cy="478.1" r="2" stroke="black" stroke-width="1" fill="black"/>
<circle cx="257.5" cy="293.8" r="4" stroke="black" stroke-width="1" fill="pink"/>
<circle cx="354.3" cy="217.5" r="2" stroke="black" stroke-width="1" fill="black"/>
<circle cx="268.3" cy="331.6" r="2" stroke="black" stroke-width="1" fill="black"/>
<circle cx="379.9" cy="223.7" r="2" stroke="black" stroke-width="1" fill="black"/>
<circle cx="257.7" cy="377.5" r="2" stroke="black" stroke-width="1" fill="black"/>
<circle cx="432.3" cy="213.7" r="4" stroke="black" stroke-width="1" fill="pink"/>
<circle cx="248.3" cy="390.4" r="4" stroke="black" stroke-width="1" fill="pink"/>
<circle cx="443.9" cy="224.3" r="2" stroke="black" stroke-width="1" fill="black"/>
<circle cx="260.7" cy="420.7" r="2" stroke="black" stroke-width="1" fill="black"/>
<circle cx="476.3" cy="237.1" r="2" stroke="black" stroke-width="1" fill="black"/>
<circle cx="261.9" cy="467.1" r="2" stroke="black" stroke-width="1" fill="black"/>
<circle cx="518.9" cy="235.2" r="2" stroke="black" stroke-width="1" fill="black"/>
<circle cx="258.4" cy="476.9" r="4" stroke="black" stroke-width="1" fill="pink"/>
<circle cx="524.7" cy="235.2" r="4" stroke="black" stroke-width="1" fill="pink"/>
<circle cx="272.2" cy="495.4" r="2" stroke="black" stroke-width="1" fill="black"/>
<circle cx="528.6" cy="266.6" r="2" stroke="black" stroke-width="1" fill="black"/>
<circle cx="281.1" cy="512.9" r="2" stroke="black" stroke-width="1" fill="black"/>
<circle cx="528.4" cy="267.6" r="2" stroke="black" stroke-width="1" fill="black"/>
<circle cx="291.5" cy="527.4" r="2" stroke="black" stroke-width="1" fill="black"/>
<circle cx="531.7" cy="291.8" r="2" stroke="black" stroke-width="1" fill="black"/>
<circle cx="300.4" cy="537.1" r="4" stroke="black" stroke-width="1" fill="pink"/>
<circle cx="552.9" cy="333.1" r="4" stroke="black" stroke-width="1" fill="pink"/>
<circle cx="354.3" cy="527.4" r="2" stroke="black" stroke-width="1" fill="black"/>
<circle cx="548.2" cy="341.5" r="2" stroke="black" stroke-width="1" fill="black"/>
<circle cx="390.8" cy="540.5" r="2" stroke="black" stroke-width="1" fill="black"/>
<circle cx="543.0" cy="404.5" r="2" stroke="black" stroke-width="1" fill="black"/>
<circle cx="409.8" cy="560.3" r="4" stroke="black" stroke-width="1" fill="pink"/>
<circle cx="549.4" cy="423.0" r="4" stroke="black" stroke-width="1" fill="pink"/>
<circle cx="433.7" cy="557.1" r="2" stroke="black" stroke-width="1" fill="black"/>
<circle cx="536.1" cy="442.4" r="2" stroke="black" stroke-width="1" fill="black"/>
<circle cx="471.8" cy="564.2" r="2" stroke="black" stroke-width="1" fill="black"/>
<circle cx="526.3" cy="500.2" r="2" stroke="black" stroke-width="1" fill="black"/>
<circle cx="479.9" cy="568.7" r="2" stroke="black" stroke-width="1" fill="black"/>
<circle cx="535.5" cy="530.8" r="4" stroke="black" stroke-width="1" fill="pink"/>
<circle cx="483.5" cy="570.6" r="4" stroke="black" stroke-width="1" fill="pink"/>
<circle cx="527.6" cy="538.8" r="2" stroke="black" stroke-width="1" fill="black"/>
<circle cx="514.1" cy="550.1" r="2" stroke="black" stroke-width="2" fill="black"/>
<circle cx="194.4" cy="247.6" r="4" stroke="black" stroke-width="1" fill="white"/>
<circle cx="248.1" cy="343.0" r="4" stroke="black" stroke-width="1" fill="white"/>
<circle cx="164.8" cy="366.0" r="4" stroke="black" stroke-width="1" fill="white"/>
<circle cx="235.0" cy="443.9" r="4" stroke="black" stroke-width="1" fill="white"/>
<circle cx="172.5" cy="516.2" r="4" stroke="black" stroke-width="1" fill="white"/>
<circle cx="255.8" cy="516.2" r="4" stroke="black" stroke-width="1" fill="white"/>
<circle cx="267.9" cy="607.2" r="4" stroke="black" stroke-width="1" fill="white"/>
<circle cx="365.5" cy="544.7" r="4" stroke="black" stroke-width="1" fill="white"/>
<circle cx="378.6" cy="622.6" r="4" stroke="black" stroke-width="1" fill="white"/>
<circle cx="448.8" cy="586.4" r="4" stroke="black" stroke-width="1" fill="white"/>
<circle cx="510.2" cy="650.0" r="4" stroke="black" stroke-width="1" fill="white"/>
<circle cx="517.9" cy="580.9" r="4" stroke="black" stroke-width="1" fill="white"/>
<circle cx="626.4" cy="567.8" r="4" stroke="black" stroke-width="1" fill="white"/>
<circle cx="554.1" cy="477.9" r="4" stroke="black" stroke-width="1" fill="white"/>
<circle cx="634.1" cy="437.3" r="4" stroke="black" stroke-width="1" fill="white"/>
<circle cx="573.8" cy="374.8" r="4" stroke="black" stroke-width="1" fill="white"/>
<circle cx="635.2" cy="327.6" r="4" stroke="black" stroke-width="1" fill="white"/>
<circle cx="542.0" cy="273.9" r="4" stroke="black" stroke-width="1" fill="white"/>
<circle cx="582.6" cy="186.2" r="4" stroke="black" stroke-width="1" fill="white"/>
<circle cx="470.7" cy="216.9" r="4" stroke="black" stroke-width="1" fill="white"/>
<circle cx="454.3" cy="157.7" r="4" stroke="black" stroke-width="1" fill="white"/>
<circle cx="370.9" cy="209.2" r="4" stroke="black" stroke-width="1" fill="white"/>
<circle cx="341.3" cy="150.0" r="4" stroke="black" stroke-width="1" fill="white"/>
<circle cx="252.5" cy="218.0" r="4" stroke="black" stroke-width="1" fill="white"/>
<circle cx="513.5" cy="265.1" r="4" stroke="black" stroke-width="1" fill="white"/>
<circle cx="487.2" cy="534.9" r="4" stroke="black" stroke-width="1" fill="white"/>
<circle cx="298.6" cy="494.3" r="4" stroke="black" stroke-width="1" fill="white"/>
<circle cx="288.7" cy="267.3" r="4" stroke="black" stroke-width="1" fill="white"/>
</svg>
